# 3ds Max Wavefront OBJ Exporter v0.97b - (c)2007 guruware
# File Created: 31.10.2022 18:42:25

mtllib waterPool.mtl

#
# object Box001
#

v  -50.0000 0.0000 50.0000
v  50.0000 0.0000 50.0000
v  50.0000 0.0000 -50.0000
v  -50.0000 0.0000 -50.0000
v  -50.0000 50.0000 50.0000
v  50.0000 50.0000 50.0000
v  50.0000 50.0000 -50.0000
v  -50.0000 50.0000 -50.0000
# 8 vertices

vn 0.0000 1.0000 -0.0000
vn 0.0000 0.0000 -1.0000
vn -1.0000 0.0000 -0.0000
vn 0.0000 0.0000 1.0000
vn 1.0000 0.0000 -0.0000
# 5 vertex normals

vt -2.0000 -2.0000 -0.7500
vt 3.0000 -2.0000 -0.7500
vt 3.0000 3.0000 -0.7500
vt -2.0000 3.0000 -0.7500
vt 3.0000 1.7500 -2.0000
vt -2.0000 1.7500 -2.0000
vt -2.0000 -0.7500 -2.0000
vt 3.0000 -0.7500 -2.0000
vt 3.0000 1.7500 3.0000
vt -2.0000 1.7500 3.0000
vt -2.0000 -0.7500 3.0000
vt 3.0000 -0.7500 3.0000
# 12 texture coords

o Box001
g Box001
usemtl Material__38
f 1/1/1 2/2/1 3/3/1 
f 3/3/1 4/4/1 1/1/1 
f 5/5/2 6/6/2 2/7/2 
f 2/7/2 1/8/2 5/5/2 
f 6/9/3 7/10/3 3/11/3 
f 3/11/3 2/12/3 6/9/3 
f 7/9/4 8/10/4 4/11/4 
f 4/11/4 3/12/4 7/9/4 
f 8/5/5 5/6/5 1/7/5 
f 1/7/5 4/8/5 8/5/5 
# 10 faces

